<svg id="Layer_1" data-name="Layer 1" xmlns="http://www.w3.org/2000/svg" viewBox="0 0 40 40"><defs><style>.cls-1{fill:#8e05c2;}.cls-2{fill:#fff;}</style></defs><title>discord</title><circle class="cls-1" cx="20.07" cy="20.09" r="20.04"/><path class="cls-2" d="M25.39,25.16a.38.38,0,0,0-.56-.16,11.69,11.69,0,0,1-4.45,1,12,12,0,0,1-5.05-1c-.29-.13-.29-.12-.58.15.45.21.88.44,1.32.62.27.11.32.23.16.47-.28.43-.52.88-.82,1.29a.48.48,0,0,1-.43.14,15.58,15.58,0,0,1-4.61-2.33.67.67,0,0,1-.26-.42,16.75,16.75,0,0,1,2.87-11,.9.9,0,0,1,.36-.3,16.2,16.2,0,0,1,3.59-1.13c.27-.05.45,0,.53.25.19.6.52.75,1.18.69,1.12-.09,2.26,0,3.39,0a.53.53,0,0,0,.39-.22c.46-.83.46-.87,1.37-.61s2,.63,2.94,1a1,1,0,0,1,.47.39A16.7,16.7,0,0,1,30.1,24a7.36,7.36,0,0,1-.07.89.61.61,0,0,1-.2.37,15.74,15.74,0,0,1-4.71,2.39.45.45,0,0,1-.4-.14c-.3-.44-.57-.91-.85-1.36-.13-.21,0-.31.16-.39C24.48,25.59,24.93,25.38,25.39,25.16Zm-3.71-4.3c0,.06,0,.12,0,.19a1.72,1.72,0,1,0,3.43,0,2,2,0,0,0-1-2,1.6,1.6,0,0,0-1.8.29A2,2,0,0,0,21.67,20.86Zm-6.62,0a3.35,3.35,0,0,0,0,.41,1.77,1.77,0,0,0,1.19,1.46,1.53,1.53,0,0,0,1.67-.44A2.15,2.15,0,0,0,18,19.49a1.61,1.61,0,0,0-2.54.06A2,2,0,0,0,15.05,20.84Z"/></svg>