<svg id="Layer_1" data-name="Layer 1" xmlns="http://www.w3.org/2000/svg" viewBox="0 0 40 40"><defs><style>.cls-1{fill:#8e05c2;}.cls-2{fill:#fff;}</style></defs><title>raydium</title><circle class="cls-1" cx="20.07" cy="20.09" r="20.04"/><path class="cls-2" d="M29.2,17v8.32L20,30.69l-9.21-5.34V14.66L20,9.31l7.08,4.11,1.07-.62L20,8.07,9.72,14V26l10.28,6,10.28-6V16.41Z"/><path class="cls-2" d="M17.42,25.35H15.88V20.16H21a1.83,1.83,0,0,0,1.29-.55,1.87,1.87,0,0,0,.54-1.3,1.76,1.76,0,0,0-.14-.7,1.8,1.8,0,0,0-.4-.59,1.82,1.82,0,0,0-.59-.4,1.73,1.73,0,0,0-.7-.14H15.88V14.89H21a3.41,3.41,0,0,1,2.4,1,3.45,3.45,0,0,1,1,2.41,3.44,3.44,0,0,1-2.08,3.15,5.92,5.92,0,0,1-1.84.28H17.42Z"/><path class="cls-2" d="M24.38,25.22h-1.8L21.2,22.79a5.79,5.79,0,0,0,1.61-.33Z"/><path class="cls-2" d="M28.13,15.3l1.06.59,1.06-.59V14l-1.06-.62L28.13,14Z"/></svg>