<svg id="Layer_1" data-name="Layer 1" xmlns="http://www.w3.org/2000/svg" viewBox="0 0 40 40"><defs><style>.cls-1{fill:#8e05c2;}.cls-2{fill:#fff;}</style></defs><title>reddit</title><circle class="cls-1" cx="20.07" cy="20.09" r="20.04"/><path class="cls-2" d="M11.46,18.22a1.89,1.89,0,0,0-2.3,3A7,7,0,0,1,11.46,18.22Z"/><circle class="cls-2" cx="28.43" cy="11.9" r="1.39"/><path class="cls-2" d="M30,22a5.92,5.92,0,0,0-2.38-3.22.46.46,0,0,1-.2-.14,13.37,13.37,0,0,0-7.47-2.08,13.41,13.41,0,0,0-7.41,2,.47.47,0,0,1-.19.13,6,6,0,0,0-2.44,3.24.46.46,0,0,1,0,.18h0a4.2,4.2,0,0,0-.09.88c0,3.58,4.57,6.48,10.18,6.48S30.13,26.58,30.13,23a4.18,4.18,0,0,0-.08-.84A.47.47,0,0,1,30,22Zm-15.48-.31a1.76,1.76,0,0,1,1.74-1.74A1.74,1.74,0,0,1,18,21.65a1.71,1.71,0,0,1-1.71,1.71A1.74,1.74,0,0,1,14.52,21.65ZM24,26.53a5.45,5.45,0,0,1-4,1.24,5.44,5.44,0,0,1-4-1.24.46.46,0,0,1,.66-.66,4.61,4.61,0,0,0,3.35,1,4.62,4.62,0,0,0,3.35-1,.46.46,0,0,1,.66.66Zm-.24-3.16A1.74,1.74,0,0,1,22,21.65a1.76,1.76,0,0,1,1.74-1.74,1.74,1.74,0,0,1,1.71,1.74A1.71,1.71,0,0,1,23.76,23.37Z"/><path class="cls-2" d="M29.61,17.88a1.88,1.88,0,0,0-1.13.38,6.94,6.94,0,0,1,2.27,3,1.89,1.89,0,0,0-1.14-3.39Z"/><path class="cls-2" d="M29.61,17a2.8,2.8,0,0,0-1.91.75,14.14,14.14,0,0,0-7.1-2.1L22.12,11l4,.94A2.32,2.32,0,1,0,26.3,11l-4.38-1h0l-.41-.1-1.88,5.73a14.29,14.29,0,0,0-7.38,2.07,2.82,2.82,0,1,0-3.34,4.5,5,5,0,0,0-.07.84c0,4.09,5,7.41,11.11,7.41S31.06,27.09,31.06,23a5,5,0,0,0-.06-.78A2.82,2.82,0,0,0,29.61,17Zm-1.18-6.44A1.39,1.39,0,1,1,27,11.9,1.39,1.39,0,0,1,28.43,10.51ZM8.5,19.77a1.89,1.89,0,0,1,3-1.55,7,7,0,0,0-2.3,3A1.89,1.89,0,0,1,8.5,19.77Zm11.45,9.72c-5.61,0-10.18-2.91-10.18-6.48a4.2,4.2,0,0,1,.09-.88h0a.46.46,0,0,0,0-.18,6,6,0,0,1,2.44-3.24.47.47,0,0,0,.19-.13,13.41,13.41,0,0,1,7.41-2,13.37,13.37,0,0,1,7.47,2.08.46.46,0,0,0,.2.14A5.92,5.92,0,0,1,30,22a.47.47,0,0,0,0,.2,4.18,4.18,0,0,1,.08.84C30.13,26.58,25.56,29.49,19.95,29.49Zm10.81-8.21a6.94,6.94,0,0,0-2.27-3,1.89,1.89,0,0,1,2.27,3Z"/></svg>