<svg id="Layer_1" data-name="Layer 1" xmlns="http://www.w3.org/2000/svg" viewBox="0 0 40 40"><defs><style>.cls-1{fill:#8e05c2;}.cls-2{fill:#f3f3f3;}</style></defs><title>twitter</title><circle class="cls-1" cx="20.07" cy="19.92" r="19.92"/><path class="cls-2" d="M16.35,24.24a3.85,3.85,0,0,1-3-1.49,3.31,3.31,0,0,1-.62-1.21,3.66,3.66,0,0,0,1.67-.06,3.9,3.9,0,0,1-2.56-1.92,3.62,3.62,0,0,1-.47-1.93,4.32,4.32,0,0,0,.82.34,3.48,3.48,0,0,0,.87.13,3.9,3.9,0,0,1-1.56-2.27,3.84,3.84,0,0,1,0-1.9,3.65,3.65,0,0,1,.41-1,11.08,11.08,0,0,0,3.8,3,10.84,10.84,0,0,0,2.14.76,11.7,11.7,0,0,0,2,.29h.06v-.09c0-.17-.05-.34-.07-.52a1.83,1.83,0,0,1,0-.26,4.59,4.59,0,0,1,.07-.75,3.82,3.82,0,0,1,.28-.87,3.88,3.88,0,0,1,2.48-2.11,4.12,4.12,0,0,1,.65-.12c.13,0,.27,0,.4,0a3.49,3.49,0,0,1,.93.11,3.81,3.81,0,0,1,.67.23,3.89,3.89,0,0,1,1,.64l.21.2a.06.06,0,0,0,.07,0l.47-.11a7.14,7.14,0,0,0,1.21-.44c.23-.11.45-.23.67-.35l.06,0s0,.05,0,.07a3.61,3.61,0,0,1-.39.82,4.07,4.07,0,0,1-.38.51,3.93,3.93,0,0,1-.66.59l-.18.13a7.57,7.57,0,0,0,2.15-.59h0l0,.05a7.44,7.44,0,0,1-.64.82c-.11.12-.23.25-.35.37a7.2,7.2,0,0,1-.83.71.15.15,0,0,0-.07.17.38.38,0,0,1,0,.07c0,.2,0,.39,0,.59s0,.17,0,.25,0,.1,0,.14c0,.25,0,.5-.07.75s-.08.47-.12.71a8.13,8.13,0,0,1-.24.95c-.1.3-.2.61-.31.91s-.2.49-.31.73a10.86,10.86,0,0,1-.59,1.1A11.42,11.42,0,0,1,24.76,24c-.2.23-.41.45-.63.66a9.86,9.86,0,0,1-1.06.89A10.24,10.24,0,0,1,20.39,27a9.79,9.79,0,0,1-1.06.31l-.84.17-.58.08-.45,0-.31,0h-.93l-.24,0h-.14a10.56,10.56,0,0,1-1.34-.17,10.44,10.44,0,0,1-1.91-.55l-.73-.31a9.88,9.88,0,0,1-1.16-.63l-.07-.06a8,8,0,0,0,2.93-.22,7.68,7.68,0,0,0,2.1-.91A6.75,6.75,0,0,0,16.35,24.24Z"/></svg>